<?xml version="1.0" encoding="UTF-8" standalone="no"?>
<!-- Created with Inkscape (http://www.inkscape.org/) -->

<svg
   xmlns:dc="http://purl.org/dc/elements/1.1/"
   xmlns:cc="http://creativecommons.org/ns#"
   xmlns:rdf="http://www.w3.org/1999/02/22-rdf-syntax-ns#"
   xmlns:svg="http://www.w3.org/2000/svg"
   xmlns="http://www.w3.org/2000/svg"
   xmlns:sodipodi="http://sodipodi.sourceforge.net/DTD/sodipodi-0.dtd"
   xmlns:inkscape="http://www.inkscape.org/namespaces/inkscape"
   width="744.09448819"
   height="1052.3622047"
   id="svg2"
   version="1.1"
   inkscape:version="0.48.2 r9819"
   sodipodi:docname="drive.svg">
  <defs
     id="defs4">
    <marker
       inkscape:stockid="Arrow1Mend"
       orient="auto"
       refY="0.0"
       refX="0.0"
       id="Arrow1Mend"
       style="overflow:visible;">
      <path
         id="path3971"
         d="M 0.0,0.0 L 5.0,-5.0 L -12.5,0.0 L 5.0,5.0 L 0.0,0.0 z "
         style="fill-rule:evenodd;stroke:#000000;stroke-width:1.0pt;marker-start:none;"
         transform="scale(0.4) rotate(180) translate(10,0)" />
    </marker>
    <marker
       inkscape:stockid="Arrow1Send"
       orient="auto"
       refY="0.0"
       refX="0.0"
       id="Arrow1Send"
       style="overflow:visible;">
      <path
         id="path3977"
         d="M 0.0,0.0 L 5.0,-5.0 L -12.5,0.0 L 5.0,5.0 L 0.0,0.0 z "
         style="fill-rule:evenodd;stroke:#000000;stroke-width:1.0pt;marker-start:none;"
         transform="scale(0.2) rotate(180) translate(6,0)" />
    </marker>
    <marker
       inkscape:stockid="Arrow1Lend"
       orient="auto"
       refY="0.0"
       refX="0.0"
       id="Arrow1Lend"
       style="overflow:visible;">
      <path
         id="path3965"
         d="M 0.0,0.0 L 5.0,-5.0 L -12.5,0.0 L 5.0,5.0 L 0.0,0.0 z "
         style="fill-rule:evenodd;stroke:#000000;stroke-width:1.0pt;marker-start:none;"
         transform="scale(0.8) rotate(180) translate(12.5,0)" />
    </marker>
    <marker
       inkscape:stockid="Arrow1Mend"
       orient="auto"
       refY="0"
       refX="0"
       id="Arrow1Mend-1"
       style="overflow:visible">
      <path
         inkscape:connector-curvature="0"
         id="path3971-7"
         d="M 0,0 5,-5 -12.5,0 5,5 0,0 z"
         style="fill-rule:evenodd;stroke:#000000;stroke-width:1pt;marker-start:none"
         transform="matrix(-0.4,0,0,-0.4,-4,0)" />
    </marker>
  </defs>
  <sodipodi:namedview
     id="base"
     pagecolor="#ffffff"
     bordercolor="#666666"
     borderopacity="1.0"
     inkscape:pageopacity="0.0"
     inkscape:pageshadow="2"
     inkscape:zoom="3.3488662"
     inkscape:cx="119.04609"
     inkscape:cy="40.641554"
     inkscape:document-units="pt"
     inkscape:current-layer="layer1"
     showgrid="false"
     inkscape:window-width="1152"
     inkscape:window-height="845"
     inkscape:window-x="-4"
     inkscape:window-y="-4"
     inkscape:window-maximized="1" />
  <metadata
     id="metadata7">
    <rdf:RDF>
      <cc:Work
         rdf:about="">
        <dc:format>image/svg+xml</dc:format>
        <dc:type
           rdf:resource="http://purl.org/dc/dcmitype/StillImage" />
        <dc:title></dc:title>
      </cc:Work>
    </rdf:RDF>
  </metadata>
  <g
     inkscape:label="Layer 1"
     inkscape:groupmode="layer"
     id="layer1">
    <path
       style="fill:none;stroke:#000000;stroke-width:1px;stroke-linecap:butt;stroke-linejoin:miter;stroke-opacity:1"
       d="m 148.264,1047.2858 122.72811,0.2986"
       id="path3005"
       inkscape:connector-curvature="0" />
    <path
       style="fill:none;stroke:#000000;stroke-width:1.22873425px;stroke-linecap:butt;stroke-linejoin:miter;stroke-opacity:1;marker-mid:none;marker-end:url(#Arrow1Mend)"
       d="m 202.98943,967.7759 c 0.33076,-0.29964 -17.77947,14.65275 -17.77947,14.65275"
       id="path3777"
       inkscape:connector-curvature="0"
       sodipodi:nodetypes="cc" />
    <path
       style="fill:none;stroke:#000000;stroke-width:1.94335282px;stroke-linecap:butt;stroke-linejoin:miter;stroke-opacity:1"
       d="m 71.358012,995.10318 -2.551593,12.45172 -7.409855,1.2727 -1.058549,10.8161"
       id="path5175"
       inkscape:connector-curvature="0"
       sodipodi:nodetypes="cccc" />
    <path
       style="fill:none;stroke:#000000;stroke-width:1.94335282px;stroke-linecap:butt;stroke-linejoin:miter;stroke-opacity:1"
       d="m 57.162363,1019.6437 2.646378,-12.725 5.822026,-1.9087 2.117101,-10.1799"
       id="path5179"
       inkscape:connector-curvature="0"
       sodipodi:nodetypes="cccc" />
    <path
       sodipodi:type="arc"
       style="fill:none;stroke:#000000;stroke-width:1;stroke-miterlimit:4;stroke-opacity:1;stroke-dasharray:none;stroke-dashoffset:0"
       id="path5181"
       sodipodi:cx="78.534042"
       sodipodi:cy="994.88007"
       sodipodi:rx="2.6874766"
       sodipodi:ry="3.1353896"
       d="m 81.221519,994.88007 a 2.6874766,3.1353896 0 1 1 -5.374953,0 2.6874766,3.1353896 0 1 1 5.374953,0 z"
       transform="matrix(1.5734042,0,0,1.3806927,-55.651318,-383.65665)" />
    <path
       sodipodi:type="arc"
       style="fill:none;stroke:#ff0200;stroke-width:0.21540359;stroke-miterlimit:4;stroke-opacity:1;stroke-dasharray:0.21540359, 0.21540359;stroke-dashoffset:0"
       id="path5187"
       sodipodi:cx="43.895454"
       sodipodi:cy="1012.1993"
       sodipodi:rx="1.9651412"
       sodipodi:ry="1.9888514"
       d="m 45.860596,1012.1993 a 1.9651412,1.9888514 0 1 1 -3.930283,0 1.9651412,1.9888514 0 1 1 3.930283,0 z"
       transform="matrix(2.9309113,0,0,3.0014168,-78.543885,-2019.4613)" />
    <path
       style="fill:none;stroke:#f30000;stroke-width:0.13123462;stroke-linecap:butt;stroke-linejoin:miter;stroke-miterlimit:4;stroke-opacity:1;stroke-dasharray:0.13123462, 0.13123462;stroke-dashoffset:0;marker-end:url(#Arrow1Lend)"
       d="m 51.957883,1023.9944 c 4.607943,33.1455 88.209187,9.2568 88.209187,9.2568"
       id="path5191"
       inkscape:connector-curvature="0"
       sodipodi:nodetypes="cc" />
    <path
       style="fill:none;stroke:#000000;stroke-width:1.94335282px;stroke-linecap:butt;stroke-linejoin:miter;stroke-opacity:1"
       d="m 59.636756,1007.4364 -7.409854,11.4524"
       id="path5759"
       inkscape:connector-curvature="0"
       sodipodi:nodetypes="cc" />
    <path
       style="fill:none;stroke:#000000;stroke-width:1.94335282px;stroke-linecap:butt;stroke-linejoin:miter;stroke-opacity:1"
       d="m 65.988059,1000.4377 -12.702608,0"
       id="path5761"
       inkscape:connector-curvature="0" />
    <path
       style="fill:none;stroke:#000000;stroke-width:1.94335282px;stroke-linecap:butt;stroke-linejoin:miter;stroke-opacity:1"
       d="m 49.580525,1016.3439 3.175652,3.1813"
       id="path5763"
       inkscape:connector-curvature="0" />
    <path
       style="fill:none;stroke:#000000;stroke-width:1.94335282px;stroke-linecap:butt;stroke-linejoin:miter;stroke-opacity:1"
       d="m 49.051249,995.9839 3.175652,10.1801"
       id="path5765"
       inkscape:connector-curvature="0" />
    <path
       style="fill:none;stroke:#000000;stroke-width:1.94335282px;stroke-linecap:butt;stroke-linejoin:miter;stroke-opacity:1"
       d="m 50.1098,1002.3464 -14.766025,7.8945"
       id="path5767"
       inkscape:connector-curvature="0"
       sodipodi:nodetypes="cc" />
    <path
       style="fill:none;stroke:#000000;stroke-width:1.94335282px;stroke-linecap:butt;stroke-linejoin:miter;stroke-opacity:1"
       d="m 47.463424,983.25909 -7.409855,16.54241 -20.11246,3.1811 c 0,0 -6.382153,8.2232 5.292754,6.3625 l 10.245796,0 4.044634,12.0888 32.285794,-0.6362 3.704926,-10.8161 15.348983,-2e-4 2.117101,9.9595 6.880579,-1.0519 -1.791651,-20.10037 -28.377041,-0.25963"
       id="path5769"
       inkscape:connector-curvature="0"
       sodipodi:nodetypes="ccccccccccccc" />
    <path
       sodipodi:type="arc"
       style="fill:none;stroke:#000000;stroke-width:1.72758758;stroke-miterlimit:4;stroke-opacity:1;stroke-dasharray:none;stroke-dashoffset:0"
       id="path5771"
       sodipodi:cx="34.190678"
       sodipodi:cy="1022.5013"
       sodipodi:rx="4.7333293"
       sodipodi:ry="4.4791279"
       d="m 38.924007,1022.5013 a 4.7333293,4.4791279 0 1 1 -9.466659,0 4.7333293,4.4791279 0 1 1 9.466659,0 z"
       transform="matrix(1.5382491,0,0,1.6260251,-25.376465,-641.30883)" />
    <path
       sodipodi:type="arc"
       style="fill:none;stroke:#000000;stroke-width:1.72758758;stroke-miterlimit:4;stroke-opacity:1;stroke-dasharray:none;stroke-dashoffset:0"
       id="path5771-0"
       sodipodi:cx="34.190678"
       sodipodi:cy="1022.5013"
       sodipodi:rx="5.1368346"
       sodipodi:ry="4.4791279"
       d="m 39.327512,1022.5013 a 5.1368346,4.4791279 0 1 1 -10.273669,0 5.1368346,4.4791279 0 1 1 10.273669,0 z"
       transform="matrix(1.4800711,0,0,1.6488789,31.953682,-664.2093)" />
    <path
       style="fill:none;stroke:#000000;stroke-width:1.94335282px;stroke-linecap:butt;stroke-linejoin:miter;stroke-opacity:1"
       d="m 44.817047,1020.7977 4.763478,-3.8176"
       id="path5791"
       inkscape:connector-curvature="0" />
    <path
       style="fill:none;stroke:#000000;stroke-width:1px;stroke-linecap:butt;stroke-linejoin:miter;stroke-opacity:1"
       d="m 272.33096,1006.0779 -37.92327,21.4998 0,5.3749 -7.76383,4.7778 -6.86799,1.7916 -27.17338,-28.0692 1.49304,-2.3889 5.97218,0 5.67356,0 7.46521,5.375 8.36104,3.2847 -0.59722,3.8819 0.59722,4.1805 3.88191,2.9861 4.18052,1.4931 4.47913,-0.8959"
       id="path5793"
       inkscape:connector-curvature="0"
       sodipodi:nodetypes="cccccccccccccccc" />
    <path
       style="fill:none;stroke:#000000;stroke-width:1px;stroke-linecap:butt;stroke-linejoin:miter;stroke-opacity:1"
       d="m 221.86613,1017.7236 36.72885,-31.95112"
       id="path5795"
       inkscape:connector-curvature="0"
       sodipodi:nodetypes="cc" />
    <path
       style="fill:none;stroke:#000000;stroke-width:1px;stroke-linecap:butt;stroke-linejoin:miter;stroke-opacity:1"
       d="m 189.91502,1011.1542 c 11.34712,13.1388 25.97894,27.1734 25.97894,27.1734 l -3.2847,1.1944 -24.7845,-26.8748 z"
       id="path5797"
       inkscape:connector-curvature="0" />
    <path
       style="fill:none;stroke:#000000;stroke-width:1px;stroke-linecap:butt;stroke-linejoin:miter;stroke-opacity:1"
       d="m 195.58858,1021.6055 -29.56225,25.0831 4.77774,0 27.17338,-22.3956"
       id="path5799"
       inkscape:connector-curvature="0" />
  </g>
</svg>
