/* XPM */
static char *xc[] = {
/* columns rows colors chars-per-pixel */
"48 48 2 1",
"  c opaque",
". c white",
/* pixels */
"............................................... ",
".............................................. .",
"............................................. ..",
"............................................ ...",
"........................................... ....",
".......................................... .....",
"......................................... ......",
"........................................ .......",
"....................................... ........",
".....................................   ........",
"....................................   .........",
"...................................   ..........",
"..................................   ...........",
".................................   ............",
"................. ..............   .............",
"..................  ...........   ..............",
"...................  .........   ...............",
"....................   ......   ................",
"......................  ....   .................",
".......................  ..   ..................",
"........................     ...................",
".........................   ........     .......",
"...............  .......      ...........  .....",
".............  ........   ..   ...........  ....",
"..........   .........   ....    .........  ....",
"........    .........    .....    ........  ....",
".......   .........     .......     .....   ....",
"......   .........     .........    .....  .....",
"......  .........     ...........  .....   .....",
".....   ........     ...................   .....",
"....   ........     ...................   ......",
"...    .......     ...................   .......",
"...   .......     ...................   ........",
"..    ......     ..................    .........",
"..   ......     .................    ...........",
".    ....      ...............      ............",
".    ...      ..............       .............",
"      ....................        ..............",
"      ..................        ................",
"        .......               ..................",
"                            ....................",
"                          ......................",
"                        ........................",
"                      ..........................",
".                   ............................",
"...            .................................",
".....    .......................................",
"................................................"
};
