/* XPM */
static char *xc2[] = {
/* columns rows colors chars-per-pixel */
"48 48 3 1 47 0",
". c blue",
"  c red",
"X c None",
/* pixels */
"XXXXXXXXXXXXXXXXXXXXXXXXXXXXXXXXXXXXXXXXXXX   X.",
"XXXXXXXXXXXXXXXXXXXXXXXXXXXXXXXXXXXXXXXXXXXXXX.X",
"XXXXXXXXXXXXXXXXXXXXXXXXXXXXXXXXXXXXXXXXXXXXX.X ",
"XXXXXXXXXXXXXXXXXXXXXXXXXXXXXXXXXXXXXXXXXXXX.XX ",
"XXXXXXXXXXXXXXXXXXXXXXXXXXXXXXXXXXXXXXXXXXX.XXX ",
"XXXXXXXXXXXXXXXXXXXXXXXXXXXXXXXXXXXXXXXXXX.XXXXX",
"XXXXXXXXXXXXXXXXXXXXXXXXXXXXXXXXXXXXXXXXX.XXXXXX",
"XXXXXXXXXXXXXXXXXXXXXXXXXXXXXXXXXXXXXXXX.XXXXXXX",
"XXXXXXXXXXXXXXXXXXXXXXXXXXXXXXXXXXXXXXX.XXXXXXXX",
"XXXXXXXXXXXXXXXXXXXXXXXXXXXXXXXXXXXXX...XXXXXXXX",
"XXXXXXXXXXXXXXXXXXXXXXXXXXXXXXXXXXXX...XXXXXXXXX",
"XXXXXXXXXXXXXXXXXXXXXXXXXXXXXXXXXXX...XXXXXXXXXX",
"XXXXXXXXXXXXXXXXXXXXXXXXXXXXXXXXXX...XXXXXXXXXXX",
"XXXXXXXXXXXXXXXXXXXXXXXXXXXXXXXXX...XXXXXXXXXXXX",
"XXXXXXXXXXXXXXXXX.XXXXXXXXXXXXXX...XXXXXXXXXXXXX",
"XXXXXXXXXXXXXXXXXX..XXXXXXXXXXX...XXXXXXXXXXXXXX",
"XXXXXXXXXXXXXXXXXXX..XXXXXXXXX...XXXXXXXXXXXXXXX",
"XXXXXXXXXXXXXXXXXXXX...XXXXXX...XXXXXXXXXXXXXXXX",
"XXXXXXXXXXXXXXXXXXXXXX..XXXX...XXXXXXXXXXXXXXXXX",
"XXXXXXXXXXXXXXXXXXXXXXX..XX...XXXXXXXXXXXXXXXXXX",
"XXXXXXXXXXXXXXXXXXXXXXXX.....XXXXXXXXXXXXXXXXXXX",
"XXXXXXXXXXXXXXXXXXXXXXXXX...XXXXXXXX     XXXXXXX",
"XXXXXXXXXXXXXXX  XXXXXXX......XXXXXXXXXXX  XXXXX",
"XXXXXXXXXXXXX  XXXXXXXX...XX...XXXXXXXXXXX  XXXX",
"XXXXXXXXXX   XXXXXXXXX...XXXX....XXXXXXXXX  XXXX",
"XXXXXXXX    XXXXXXXXX....XXXXX....XXXXXXXX  XXXX",
"XXXXXXX   XXXXXXXXX.....XXXXXXX.....XXXXX   XXXX",
"XXXXXX   XXXXXXXXX.....XXXXXXXXX....XXXXX  XXXXX",
"XXXXXX  XXXXXXXXX.....XXXXXXXXXXX..XXXXX   XXXXX",
"XXXXX   XXXXXXXX.....XXXXXXXXXXXXXXXXXXX   XXXXX",
"XXXX   XXXXXXXX.....XXXXXXXXXXXXXXXXXXX   XXXXXX",
"XXX    XXXXXXX.....XXXXXXXXXXXXXXXXXXX   XXXXXXX",
"XXX   XXXXXXX.....XXXXXXXXXXXXXXXXXXX   XXXXXXXX",
"XX    XXXXXX.....XXXXXXXXXXXXXXXXXX    XXXXXXXXX",
"XX   XXXXXX.....XXXXXXXXXXXXXXXXX    XXXXXXXXXXX",
"X    XXXX......XXXXXXXXXXXXXXX      XXXXXXXXXXXX",
"X    XXX......XXXXXXXXXXXXXX       XXXXXXXXXXXXX",
"      XXXXXXXXXXXXXXXXXXXX        XXXXXXXXXXXXXX",
"      XXXXXXXXXXXXXXXXXX        XXXXXXXXXXXXXXXX",
"        XXXXXXX               XXXXXXXXXXXXXXXXXX",
"                            XXXXXXXXXXXXXXXXXXXX",
"                          XXXXXXXXXXXXXXXXXXXXXX",
"                        XXXXXXXXXXXXXXXXXXXXXXXX",
"                      XXXXXXXXXXXXXXXXXXXXXXXXXX",
"X                   XXXXXXXXXXXXXXXXXXXXXXXXXXXX",
"XXX            XXXXXXXXXXXXXXXXXXXXXXXXXXXXXXXXX",
"XXXXX    XXXXXXXXXXXXXXXXXXXXXXXXXXXXXXXXXXXXXXX",
"XXXXXXXXXXXXXXXXXXXXXXXXXXXXXXXXXXXXXXXXXXXXXXXX"
};
