/* XPM */
static char * xc3_xpm[] = {
"48 48 3 1 0 0",
" 	c None",
".	c #0000FF",
"+	c #FF0000",
". +++                                           ",
" .                                              ",
"+ .                                             ",
"+  .                                            ",
"+   .                                           ",
"     .                                          ",
"      .                                         ",
"       .                                        ",
"        .                                       ",
"        ...                                     ",
"         ...                                    ",
"          ...                                   ",
"           ...                                  ",
"            ...                                 ",
"             ...              .                 ",
"              ...           ..                  ",
"               ...         ..                   ",
"                ...      ...                    ",
"                 ...    ..                      ",
"                  ...  ..                       ",
"                   .....                        ",
"       +++++        ...                         ",
"     ++           ......       ++               ",
"    ++           ...  ...        ++             ",
"    ++         ....    ...         +++          ",
"    ++        ....     ....         ++++        ",
"    +++     .....       .....         +++       ",
"     ++     ....         .....         +++      ",
"     +++     ..           .....         ++      ",
"     +++                   .....        +++     ",
"      +++                   .....        +++    ",
"       +++                   .....       ++++   ",
"        +++                   .....       +++   ",
"         ++++                  .....      ++++  ",
"           ++++                 .....      +++  ",
"            ++++++               ......    ++++ ",
"             +++++++              ......   ++++ ",
"              ++++++++                    ++++++",
"                ++++++++                  ++++++",
"                  +++++++++++++++       ++++++++",
"                    ++++++++++++++++++++++++++++",
"                      ++++++++++++++++++++++++++",
"                        ++++++++++++++++++++++++",
"                          ++++++++++++++++++++++",
"                            +++++++++++++++++++ ",
"                                 ++++++++++++   ",
"                                       ++++     ",
"                                                "};
