<?xml version="1.0" encoding="UTF-8" standalone="no"?>
<svg
   xmlns:dc="http://purl.org/dc/elements/1.1/"
   xmlns:cc="http://creativecommons.org/ns#"
   xmlns:rdf="http://www.w3.org/1999/02/22-rdf-syntax-ns#"
   xmlns:svg="http://www.w3.org/2000/svg"
   xmlns="http://www.w3.org/2000/svg"
   xmlns:xlink="http://www.w3.org/1999/xlink"
   version="1.1"
   width="1461.24"
   height="364.297">
  <path
     d="m 1324.08,0 c -75.756,0 -137.156,61.4316 -137.156,137.188 0,1.75984 0.028,3.50623 0.094,5.25 43.8119,-30.9227 118.52,-81.8773 137.031,-83.2188 6.1355,-7.77165 27.0886,-13.9488 30.9063,-13.8125 l -10.9376,13.6875 c 0,0 -0.3468,13.9918 -4.4374,16.7188 38.1873,25.5204 56.5146,117.301 64.3124,172.906 34.722,-24.8879 57.3438,-65.552 57.3438,-111.531 C 1461.2565,61.4316 1399.8565,0 1324.0965,0 z m -6.7813,123.938 c -10.2724,0.30651 -31.3478,31.0024 -55.1563,63.875 -11.4411,15.7967 -23.2626,32.2733 -34.1562,47.25 24.7487,24.3013 58.6686,39.2812 96.0938,39.2812 26.8282,0 51.8601,-7.68642 73,-21 -16.2658,-49.732 -47.194,-129.156 -78.8438,-129.344 -0.3086,-0.0543 -0.6061,-0.0724 -0.9375,-0.0625 z m -76.9063,12.5312 c -9.4083,-0.0711 -32.6907,8.01982 -52.6562,15.7188 2.0296,18.6617 7.7818,36.1962 16.5312,51.8438 4.0088,-6.05752 8.1934,-12.307 12.3438,-18.4062 15.8524,-23.296 31.2008,-43.8741 27.5938,-48.125 -0.6444,-0.71109 -1.964,-1.01728 -3.8126,-1.03125 z m 24.75,11.7188 c -7.5931,1.15076 -35.0196,35.336 -56.8124,62.625 3.5431,5.55896 7.4663,10.8367 11.75,15.8125 22.4,-36.6788 47.4735,-76.6644 46.125,-78.3125 -0.2898,-0.13635 -0.6534,-0.187 -1.0626,-0.125 z"
     style="fill:#0068c8;fill-rule:evenodd" />
  <path
     d="m 30,135.875 -1.21875,0.25 -28,6 -0.7812,0.187 v 0.78125 c 0.656128,54.3916 -0.91286,108.839 0.28125,163.219 0.280297,11.9088 0.885198,14.226 2,18.4062 3.19641,11.9856 6.51027,18.6614 12.5938,25.0938 6.21471,6.57114 14.5134,10.9537 24.9062,13.2188 10.0129,2.18224 32.9566,1.43298 45.4062,-1.40625 2.48231,-0.56611 4.82934,-1.19628 6.65625,-1.75 0.91345,-0.27686 1.70606,-0.5483 2.3125,-0.78125 0.30322,-0.11648 0.55632,-0.23285 0.78125,-0.34375 0.22493,-0.1109 0.38592,-0.16717 0.625,-0.40625 0.34303,-0.34303 0.41015,-0.64965 0.46875,-0.9375 0.0586,-0.28785 0.0823,-0.5932 0.0937,-0.9375 0.0229,-0.68861 -0.0395,-1.52042 -0.125,-2.5 -0.17109,-1.95916 -0.52508,-4.42596 -0.96875,-6.90625 -0.44367,-2.48029 -0.96767,-4.96142 -1.5,-6.9375 -0.26616,-0.98804 -0.54682,-1.84192 -0.8125,-2.53125 -0.26568,-0.68933 -0.4017,-1.18564 -0.96875,-1.65625 -0.83299,-0.69133 -1.77209,-0.63226 -3,-0.53125 -1.22791,0.10101 -2.72825,0.39849 -4.5,0.875 -3.09954,0.83361 -10.6268,1.51396 -18.8438,1.625 -6.64033,0.0897 -10.0606,0.12052 -12.4062,-0.21875 -2.34561,-0.33927 -3.70748,-1.03893 -6.5625,-2.5 -7.49108,-3.83361 -11.4054,-9.23994 -14,-19.5 -0.92383,-3.65326 -1.39697,-6.19356 -1.625,-13.4375 -0.153953,-52.382 -0.46188,-107.187 -0.8125,-165.156 v -1.21875 z"
     style="fill:#033c71" />
  <path
     d="m 107,189.125 c -0.0828,16.6563 -0.18565,33.3125 -0.28125,49.9688 -0.18216,31.9612 -0.0396,50.451 1.21875,63.2188 1.25835,12.7678 3.65078,19.8319 7.875,28.6875 7.66356,16.0658 22.3224,27.0609 41.4688,31.1562 2.11918,0.45327 7.6438,1.0158 12.625,1.34375 11.4758,0.75554 27.3903,0.37265 39.6875,-0.96875 6.25112,-0.68188 15.2917,-2.16346 23,-3.625 3.85415,-0.73077 7.36226,-1.46174 10.0312,-2.09375 1.3345,-0.316 2.48374,-0.58327 3.34375,-0.84375 0.43001,-0.13024 0.78843,-0.25412 1.09375,-0.375 0.30532,-0.12088 0.53215,-0.209 0.8125,-0.4375 0.40914,-0.33347 0.42197,-0.60957 0.5,-0.875 0.078,-0.26543 0.13288,-0.53459 0.1875,-0.90625 0.10923,-0.74331 0.19877,-1.77887 0.28125,-3.1875 0.16496,-2.81727 0.28,-7.13523 0.375,-13.4375 0.44276,-51.0148 0.28125,-98.7188 0.28125,-148.219 -10.164,0.24659 -20.3377,0.26641 -30.5,0.5937 -0.7295,47.0343 0.53474,86.8865 -0.75,134.312 -0.13646,4.73626 -0.32251,7.38209 -0.5625,8.78125 -0.11999,0.69958 -0.25825,1.09282 -0.34375,1.25 -0.0855,0.15718 -0.0747,0.0959 -0.1875,0.15625 -0.48598,0.26009 -2.41918,0.77508 -4.96875,1.15625 -2.54957,0.38117 -5.80563,0.72391 -9.375,1 -7.13874,0.55219 -15.5272,0.83011 -22.0312,0.59375 -9.94788,-0.3615 -13.7868,-0.91328 -18.125,-2.59375 -7.4495,-2.88565 -14.6083,-9.52117 -18.25,-16.9375 -3.03336,-6.17736 -4.54176,-9.62947 -5.40625,-19.0938 -0.86449,-9.46428 -1.02598,-24.8717 -1.25,-54.4375 -0.0463,-18.2604 -0.40625,-36.5208 -0.40625,-54.7812 -10.1117,0.23345 -20.2338,0.2682 -30.3438,0.5938 z"
     id="u"
     style="fill:#033c71" />
  <path
     d="m 317.844,104.594 c -0.88318,0 -2.64923,0.26796 -5.1875,0.65625 -6.00157,0.94042 -11.5223,1.86107 -17.3438,3 -1.17754,0.23116 -2.15941,0.45469 -2.90625,0.625 -0.37342,0.0851 -0.68943,0.14991 -0.9375,0.21875 -0.24807,0.0688 -0.35008,0.0727 -0.6875,0.28125 -0.002,0.001 -0.2928,0.23254 -0.34375,0.3125 -0.051,0.08 -0.0448,0.14302 -0.0625,0.1875 -0.0353,0.089 -0.0522,0.11077 -0.0625,0.15625 -0.0206,0.091 -0.0221,0.17472 -0.0312,0.25 -0.0183,0.15056 -0.0482,0.33591 -0.0625,0.5625 -0.0286,0.45318 -0.0671,1.07303 -0.0937,1.90625 -0.0533,1.66644 -0.0762,4.10548 -0.125,7.21875 -0.0975,6.22655 -0.20737,15.1769 -0.28125,26.2188 -0.14776,22.0837 -0.21875,52.4793 -0.21875,85.8438 0,47.9233 0.0609,78.3006 0.25,96.8125 0.0946,9.25597 0.21065,15.5532 0.375,19.5938 0.0822,2.02026 0.17524,3.461 0.28125,4.46875 0.053,0.50388 0.1172,0.89865 0.1875,1.21875 0.0351,0.16005 0.0653,0.31655 0.125,0.46875 0.0597,0.1522 0.0938,0.33334 0.375,0.5625 0.2792,0.22756 0.46839,0.24755 0.71875,0.34375 0.25036,0.0962 0.55091,0.20562 0.90625,0.3125 0.71068,0.21375 1.6254,0.47572 2.75,0.75 2.24919,0.54856 5.25411,1.19115 8.59375,1.875 6.67928,1.36769 14.7232,2.8289 20.7812,3.71875 2.90476,0.42667 11.3734,1.01753 19.0938,1.34375 7.72373,0.3264 17.3861,0.47721 21.5938,0.3125 22.6299,-0.88581 44.783,-10.7088 58.3125,-25.9062 26.2968,-29.5388 29.1356,-82.8166 6.3125,-116.938 -9.503,-14.212 -22.446,-24.953 -37.342,-30.97 -10.5747,-4.27132 -19.4473,-5.62686 -33.375,-5.125 -13.1204,0.47278 -22.1108,2.70608 -33.4062,8.3125 -1.19117,0.59123 -2.39655,1.07037 -3.375,1.375 -0.48923,0.15232 -0.94313,0.26343 -1.25,0.3125 -0.054,0.009 -0.0156,-0.003 -0.0625,0 -0.0713,-0.29372 -0.14669,-0.72853 -0.21875,-1.40625 -0.15712,-1.47774 -0.28,-3.83386 -0.375,-7.28125 -0.19,-6.89477 -0.25,-18.175 -0.25,-35.6875 0,-20.4768 -0.0568,-31.6928 -0.28125,-37.8438 -0.11222,-3.07547 -0.24451,-4.84458 -0.5,-6 -0.12774,-0.57771 -0.288,-1.0455 -0.59375,-1.4375 -0.30575,-0.392 -0.87332,-0.625 -1.28125,-0.625 z m 43.1562,107.094 c 5.38134,-0.0113 10.5657,0.45703 13.2812,1.28125 17.8383,5.41432 31.2781,20.4199 36.8438,41.375 2.44201,9.19436 2.5003,31.1468 0.125,40 -5.54766,20.6773 -19.8993,36.1493 -37.5625,40.75 -2.0399,0.53133 -6.02995,0.93212 -10.875,1.15625 -4.84505,0.22413 -10.5683,0.28253 -16.2188,0.1875 -5.65048,-0.095 -11.2415,-0.33657 -15.8125,-0.71875 -4.46696,-0.37347 -7.91092,-0.91239 -9.375,-1.4375 -0.005,-0.0166 0.005,-0.0127 0,-0.0312 -0.0838,-0.30821 -0.16503,-0.88887 -0.25,-1.71875 -0.16995,-1.65975 -0.30799,-4.34838 -0.40625,-8.4375 0.0166,-32.2815 -0.98869,-56.9934 0,-91.0938 0.11657,-3.76091 0.27754,-5.94298 0.5,-7.21875 0.22246,-1.27577 0.41212,-1.49803 0.65625,-1.71875 0.57392,-0.51888 2.10828,-1.4828 4.0625,-2.53125 1.95422,-1.04845 4.35779,-2.23591 6.875,-3.375 5.03443,-2.27819 10.5489,-4.38894 13.5,-5.09375 3.65642,-0.87326 9.27491,-1.36365 14.6562,-1.375 z"
     style="fill:#033c71" />
  <use
     transform="translate(377.82905,0)"
     xlink:href="#u" />
  <path
     d="m 733.812,185.812 c -4.5666,0.0985 -8.92282,0.30607 -12.6562,0.6875 -5.73599,0.58602 -14.8082,1.98525 -23,3.4375 -4.09591,0.72613 -7.97283,1.46447 -11.0938,2.125 -3.12092,0.66053 -5.441,1.22547 -6.65625,1.6875 l -2.28125,0.875 -0.625,0.21875 v 0.71875 c 0.0969,46.0273 -0.17875,94.2196 0.1875,139 0.0629,7.43806 0.1357,13.4974 0.21875,17.7188 0.0415,2.11068 0.0794,3.7598 0.125,4.90625 0.0228,0.57322 0.0687,1.0179 0.0937,1.34375 0.0125,0.16292 0.0138,0.31545 0.0312,0.4375 0.009,0.061 0.011,0.10673 0.0312,0.1875 0.0202,0.0808 -0.0782,0.14061 0.28125,0.5 0.26423,0.26421 0.42721,0.26926 0.5625,0.3125 0.13529,0.0432 0.23552,0.0683 0.375,0.0937 0.27895,0.0509 0.62804,0.089 1.03125,0.125 0.80641,0.072 1.88416,0.14939 3.1875,0.1875 2.60668,0.0762 6.07026,0.0765 9.8125,0 l 13.562,-0.282 0.96875,-0.0312 c 0.22328,-24.3218 0.36229,-48.646 0.5312,-72.9688 l 0.5,-71.1562 5.1875,-1.0625 c 4.76603,-0.9439 12.7724,-1.61435 20.4688,-1.875 7.69637,-0.26065 15.1725,-0.0761 18.6562,0.5625 15.7179,2.88134 25.2922,12.2773 29.9062,29.5 1.38287,5.1618 1.73606,13.8673 2.21875,61.0312 l 0.5625,55 v 1 h 30 v -57 c 0,-29.8384 -0.0295,-45.1658 -0.6875,-55.0312 -0.65796,-9.86543 -1.99634,-14.2987 -4.5,-21.9688 -6.25143,-19.1514 -20.6796,-32.4739 -41.0625,-37.9375 -4.48394,-1.20192 -12.8216,-1.97312 -22,-2.28125 -4.58921,-0.15406 -9.3709,-0.16105 -13.9375,-0.0625 z"
     style="fill:#033c71" />
  <path
     d="M 912.969,135.875 883,142.312 v 45.7188 l -34.3438,0.0625 v 25.9062 l 34.344,-0.312 c 0.22164,30.871 -0.39638,61.7661 0.28125,92.625 0.2803,11.9088 0.85395,14.226 1.96875,18.4062 3.19641,11.9856 6.54152,18.6614 12.625,25.0938 6.21471,6.57114 14.5134,10.9537 24.9062,13.2188 10.0129,2.18224 32.9254,1.43298 45.3751,-1.40625 2.4823,-0.56611 4.8605,-1.19628 6.6875,-1.75 0.9134,-0.27686 1.6748,-0.5483 2.2812,-0.78125 0.3032,-0.11648 0.5563,-0.23285 0.7813,-0.34375 0.2249,-0.1109 0.4171,-0.16717 0.6562,-0.40625 0.343,-0.34303 0.3789,-0.64965 0.4375,-0.9375 0.059,-0.28785 0.082,-0.5932 0.094,-0.9375 0.023,-0.68861 -0.01,-1.52042 -0.094,-2.5 -0.1711,-1.95916 -0.5251,-4.42596 -0.9687,-6.90625 -0.4437,-2.48029 -0.9677,-4.96142 -1.5,-6.9375 -0.2662,-0.98804 -0.5469,-1.84192 -0.8125,-2.53125 -0.2657,-0.68933 -0.4017,-1.18564 -0.9688,-1.65625 -0.833,-0.69133 -1.7721,-0.63226 -3,-0.53125 -1.2279,0.10101 -2.7595,0.39849 -4.5312,0.875 -3.0996,0.83361 -10.5956,1.51396 -18.8125,1.625 -6.6404,0.0897 -10.0607,0.12052 -12.4063,-0.21875 -2.3456,-0.33927 -3.7075,-1.03893 -6.5625,-2.5 -7.4911,-3.83361 -11.4054,-9.23994 -14,-19.5 -0.92383,-3.65326 -1.39697,-6.19356 -1.625,-13.4375 -0.35,-31.247 -0.017,-54.05 0.187,-88.252 l 61.1875,-0.5625 -0.3122,-25.4375 -60.9063,0.0937 -0.99995,-52.2188 z"
     style="fill:#033c71" />
  <use
     transform="translate(896.82905,0)"
     xlink:href="#u" />
</svg>