P2
# This is an example bitmap of the letter "J"
5 5
255
72  208   93  106  212
2   73   69  178  234
18  228  244   99   75
223  245  221  100   52
84  239  238  105   69
